<mxfile host="app.diagrams.net" agent="Mozilla/5.0 (Windows NT 10.0; Win64; x64) AppleWebKit/537.36 (KHTML, like Gecko) Chrome/129.0.0.0 Safari/537.36" version="24.7.17">
  <diagram name="Page-1" id="m8yTK9YHbSLMwYj-W9kf">
    <mxGraphModel dx="989" dy="538" grid="1" gridSize="10" guides="1" tooltips="1" connect="1" arrows="1" fold="1" page="1" pageScale="1" pageWidth="827" pageHeight="1169" math="0" shadow="0">
      <root>
        <mxCell id="0" />
        <mxCell id="1" parent="0" />
        <mxCell id="amzg2w3BqqPhj0Owf0NF-2" value="RNN" style="rounded=0;whiteSpace=wrap;html=1;fillColor=#dae8fc;strokeColor=#6c8ebf;" vertex="1" parent="1">
          <mxGeometry x="270" y="130" width="80" height="70" as="geometry" />
        </mxCell>
        <mxCell id="amzg2w3BqqPhj0Owf0NF-6" value="" style="endArrow=none;html=1;rounded=0;" edge="1" parent="1" source="amzg2w3BqqPhj0Owf0NF-2">
          <mxGeometry width="50" height="50" relative="1" as="geometry">
            <mxPoint x="353" y="164.70999999999998" as="sourcePoint" />
            <mxPoint x="393" y="165" as="targetPoint" />
            <Array as="points">
              <mxPoint x="383" y="164.70999999999998" />
            </Array>
          </mxGeometry>
        </mxCell>
        <mxCell id="amzg2w3BqqPhj0Owf0NF-7" value="" style="endArrow=none;html=1;rounded=0;" edge="1" parent="1">
          <mxGeometry width="50" height="50" relative="1" as="geometry">
            <mxPoint x="413" y="100" as="sourcePoint" />
            <mxPoint x="383" y="164.70999999999998" as="targetPoint" />
            <Array as="points">
              <mxPoint x="413" y="164.70999999999998" />
            </Array>
          </mxGeometry>
        </mxCell>
        <mxCell id="amzg2w3BqqPhj0Owf0NF-8" value="" style="endArrow=none;html=1;rounded=0;" edge="1" parent="1">
          <mxGeometry width="50" height="50" relative="1" as="geometry">
            <mxPoint x="203" y="100" as="sourcePoint" />
            <mxPoint x="413" y="100" as="targetPoint" />
          </mxGeometry>
        </mxCell>
        <mxCell id="amzg2w3BqqPhj0Owf0NF-9" value="" style="endArrow=none;html=1;rounded=0;" edge="1" parent="1">
          <mxGeometry width="50" height="50" relative="1" as="geometry">
            <mxPoint x="202" y="100" as="sourcePoint" />
            <mxPoint x="252" y="165" as="targetPoint" />
            <Array as="points">
              <mxPoint x="202" y="130" />
              <mxPoint x="202" y="164.70999999999998" />
            </Array>
          </mxGeometry>
        </mxCell>
        <mxCell id="amzg2w3BqqPhj0Owf0NF-10" value="" style="endArrow=classic;html=1;rounded=0;entryX=0;entryY=0.25;entryDx=0;entryDy=0;" edge="1" parent="1">
          <mxGeometry width="50" height="50" relative="1" as="geometry">
            <mxPoint x="243" y="165" as="sourcePoint" />
            <mxPoint x="273" y="164.75" as="targetPoint" />
          </mxGeometry>
        </mxCell>
        <mxCell id="amzg2w3BqqPhj0Owf0NF-11" value="" style="endArrow=classic;html=1;rounded=0;entryX=0.5;entryY=1;entryDx=0;entryDy=0;" edge="1" parent="1" target="amzg2w3BqqPhj0Owf0NF-2">
          <mxGeometry width="50" height="50" relative="1" as="geometry">
            <mxPoint x="309.71" y="260" as="sourcePoint" />
            <mxPoint x="310" y="180" as="targetPoint" />
          </mxGeometry>
        </mxCell>
        <mxCell id="amzg2w3BqqPhj0Owf0NF-12" value="x&lt;sub&gt;t&lt;/sub&gt;" style="ellipse;whiteSpace=wrap;html=1;aspect=fixed;fillColor=#d5e8d4;strokeColor=#82b366;" vertex="1" parent="1">
          <mxGeometry x="290" y="260" width="40" height="40" as="geometry" />
        </mxCell>
        <mxCell id="amzg2w3BqqPhj0Owf0NF-13" value="" style="endArrow=classic;html=1;rounded=0;exitX=0.5;exitY=0;exitDx=0;exitDy=0;" edge="1" parent="1" source="amzg2w3BqqPhj0Owf0NF-2">
          <mxGeometry width="50" height="50" relative="1" as="geometry">
            <mxPoint x="309.71" y="150" as="sourcePoint" />
            <mxPoint x="310" y="60" as="targetPoint" />
          </mxGeometry>
        </mxCell>
        <mxCell id="amzg2w3BqqPhj0Owf0NF-14" value="h&lt;sub&gt;t&lt;/sub&gt;" style="ellipse;whiteSpace=wrap;html=1;aspect=fixed;fillColor=#e1d5e7;strokeColor=#9673a6;" vertex="1" parent="1">
          <mxGeometry x="290" y="20" width="40" height="40" as="geometry" />
        </mxCell>
        <mxCell id="amzg2w3BqqPhj0Owf0NF-106" value="" style="edgeStyle=orthogonalEdgeStyle;rounded=0;orthogonalLoop=1;jettySize=auto;html=1;" edge="1" parent="1" source="amzg2w3BqqPhj0Owf0NF-63" target="amzg2w3BqqPhj0Owf0NF-69">
          <mxGeometry relative="1" as="geometry" />
        </mxCell>
        <mxCell id="amzg2w3BqqPhj0Owf0NF-63" value="RNN" style="rounded=0;whiteSpace=wrap;html=1;fillColor=#dae8fc;strokeColor=#6c8ebf;" vertex="1" parent="1">
          <mxGeometry x="287.5" y="488" width="80" height="70" as="geometry" />
        </mxCell>
        <mxCell id="amzg2w3BqqPhj0Owf0NF-65" value="" style="endArrow=classic;html=1;rounded=0;" edge="1" parent="1" target="amzg2w3BqqPhj0Owf0NF-63">
          <mxGeometry width="50" height="50" relative="1" as="geometry">
            <mxPoint x="327.21000000000004" y="618" as="sourcePoint" />
            <mxPoint x="327.5" y="538" as="targetPoint" />
          </mxGeometry>
        </mxCell>
        <mxCell id="amzg2w3BqqPhj0Owf0NF-66" value="&lt;font style=&quot;font-size: 13px;&quot;&gt;x&lt;sub style=&quot;&quot;&gt;1&lt;/sub&gt;&lt;/font&gt;" style="ellipse;whiteSpace=wrap;html=1;aspect=fixed;fillColor=#d5e8d4;strokeColor=#82b366;" vertex="1" parent="1">
          <mxGeometry x="307.5" y="618" width="40" height="40" as="geometry" />
        </mxCell>
        <mxCell id="amzg2w3BqqPhj0Owf0NF-67" value="" style="endArrow=classic;html=1;rounded=0;exitX=0.5;exitY=0;exitDx=0;exitDy=0;" edge="1" parent="1" source="amzg2w3BqqPhj0Owf0NF-63">
          <mxGeometry width="50" height="50" relative="1" as="geometry">
            <mxPoint x="327.21000000000004" y="508" as="sourcePoint" />
            <mxPoint x="327.5" y="418" as="targetPoint" />
          </mxGeometry>
        </mxCell>
        <mxCell id="amzg2w3BqqPhj0Owf0NF-68" value="&lt;font style=&quot;font-size: 13px;&quot;&gt;h&lt;sub style=&quot;&quot;&gt;1&lt;/sub&gt;&lt;/font&gt;" style="ellipse;whiteSpace=wrap;html=1;aspect=fixed;fillColor=#e1d5e7;strokeColor=#9673a6;" vertex="1" parent="1">
          <mxGeometry x="307.5" y="378" width="40" height="40" as="geometry" />
        </mxCell>
        <mxCell id="amzg2w3BqqPhj0Owf0NF-69" value="RNN" style="rounded=0;whiteSpace=wrap;html=1;fillColor=#dae8fc;strokeColor=#6c8ebf;" vertex="1" parent="1">
          <mxGeometry x="409" y="487" width="80" height="70" as="geometry" />
        </mxCell>
        <mxCell id="amzg2w3BqqPhj0Owf0NF-71" value="" style="endArrow=classic;html=1;rounded=0;entryX=0.5;entryY=1;entryDx=0;entryDy=0;" edge="1" parent="1" target="amzg2w3BqqPhj0Owf0NF-69">
          <mxGeometry width="50" height="50" relative="1" as="geometry">
            <mxPoint x="448.71000000000004" y="617" as="sourcePoint" />
            <mxPoint x="449" y="537" as="targetPoint" />
          </mxGeometry>
        </mxCell>
        <mxCell id="amzg2w3BqqPhj0Owf0NF-72" value="&lt;font style=&quot;font-size: 13px;&quot;&gt;x&lt;sub style=&quot;&quot;&gt;2&lt;/sub&gt;&lt;/font&gt;" style="ellipse;whiteSpace=wrap;html=1;aspect=fixed;fillColor=#d5e8d4;strokeColor=#82b366;" vertex="1" parent="1">
          <mxGeometry x="429" y="617" width="40" height="40" as="geometry" />
        </mxCell>
        <mxCell id="amzg2w3BqqPhj0Owf0NF-73" value="" style="endArrow=classic;html=1;rounded=0;exitX=0.5;exitY=0;exitDx=0;exitDy=0;" edge="1" parent="1" source="amzg2w3BqqPhj0Owf0NF-69">
          <mxGeometry width="50" height="50" relative="1" as="geometry">
            <mxPoint x="448.71000000000004" y="507" as="sourcePoint" />
            <mxPoint x="449" y="417" as="targetPoint" />
          </mxGeometry>
        </mxCell>
        <mxCell id="amzg2w3BqqPhj0Owf0NF-74" value="h&lt;span style=&quot;font-size: 10px;&quot;&gt;&lt;sub&gt;2&lt;/sub&gt;&lt;/span&gt;" style="ellipse;whiteSpace=wrap;html=1;aspect=fixed;fillColor=#e1d5e7;strokeColor=#9673a6;" vertex="1" parent="1">
          <mxGeometry x="429" y="377" width="40" height="40" as="geometry" />
        </mxCell>
        <mxCell id="amzg2w3BqqPhj0Owf0NF-105" value="" style="edgeStyle=orthogonalEdgeStyle;rounded=0;orthogonalLoop=1;jettySize=auto;html=1;" edge="1" parent="1" source="amzg2w3BqqPhj0Owf0NF-81" target="amzg2w3BqqPhj0Owf0NF-63">
          <mxGeometry relative="1" as="geometry" />
        </mxCell>
        <mxCell id="amzg2w3BqqPhj0Owf0NF-81" value="RNN" style="rounded=0;whiteSpace=wrap;html=1;fillColor=#dae8fc;strokeColor=#6c8ebf;" vertex="1" parent="1">
          <mxGeometry x="157" y="488" width="80" height="70" as="geometry" />
        </mxCell>
        <mxCell id="amzg2w3BqqPhj0Owf0NF-83" value="" style="endArrow=classic;html=1;rounded=0;entryX=0.5;entryY=1;entryDx=0;entryDy=0;" edge="1" parent="1" target="amzg2w3BqqPhj0Owf0NF-81">
          <mxGeometry width="50" height="50" relative="1" as="geometry">
            <mxPoint x="196.71000000000004" y="618" as="sourcePoint" />
            <mxPoint x="197" y="538" as="targetPoint" />
          </mxGeometry>
        </mxCell>
        <mxCell id="amzg2w3BqqPhj0Owf0NF-84" value="&lt;font style=&quot;font-size: 13px;&quot;&gt;x&lt;sub style=&quot;&quot;&gt;0&lt;/sub&gt;&lt;/font&gt;" style="ellipse;whiteSpace=wrap;html=1;aspect=fixed;fillColor=#d5e8d4;strokeColor=#82b366;" vertex="1" parent="1">
          <mxGeometry x="177" y="618" width="40" height="40" as="geometry" />
        </mxCell>
        <mxCell id="amzg2w3BqqPhj0Owf0NF-85" value="" style="endArrow=classic;html=1;rounded=0;exitX=0.5;exitY=0;exitDx=0;exitDy=0;" edge="1" parent="1" source="amzg2w3BqqPhj0Owf0NF-81">
          <mxGeometry width="50" height="50" relative="1" as="geometry">
            <mxPoint x="196.71000000000004" y="508" as="sourcePoint" />
            <mxPoint x="197" y="418" as="targetPoint" />
          </mxGeometry>
        </mxCell>
        <mxCell id="amzg2w3BqqPhj0Owf0NF-86" value="&lt;font style=&quot;font-size: 13px;&quot;&gt;h&lt;sub style=&quot;&quot;&gt;0&lt;/sub&gt;&lt;/font&gt;" style="ellipse;whiteSpace=wrap;html=1;aspect=fixed;fillColor=#e1d5e7;strokeColor=#9673a6;" vertex="1" parent="1">
          <mxGeometry x="177" y="378" width="40" height="40" as="geometry" />
        </mxCell>
        <mxCell id="amzg2w3BqqPhj0Owf0NF-89" value="RNN" style="rounded=0;whiteSpace=wrap;html=1;fillColor=#dae8fc;strokeColor=#6c8ebf;" vertex="1" parent="1">
          <mxGeometry x="579" y="487" width="80" height="70" as="geometry" />
        </mxCell>
        <mxCell id="amzg2w3BqqPhj0Owf0NF-90" value="" style="endArrow=classic;html=1;rounded=0;entryX=0.5;entryY=1;entryDx=0;entryDy=0;" edge="1" parent="1" target="amzg2w3BqqPhj0Owf0NF-89">
          <mxGeometry width="50" height="50" relative="1" as="geometry">
            <mxPoint x="618.71" y="617" as="sourcePoint" />
            <mxPoint x="619" y="537" as="targetPoint" />
          </mxGeometry>
        </mxCell>
        <mxCell id="amzg2w3BqqPhj0Owf0NF-91" value="&lt;font style=&quot;font-size: 13px;&quot;&gt;x&lt;sub style=&quot;&quot;&gt;t&lt;/sub&gt;&lt;/font&gt;" style="ellipse;whiteSpace=wrap;html=1;aspect=fixed;fillColor=#d5e8d4;strokeColor=#82b366;" vertex="1" parent="1">
          <mxGeometry x="599" y="616" width="40" height="40" as="geometry" />
        </mxCell>
        <mxCell id="amzg2w3BqqPhj0Owf0NF-92" value="" style="endArrow=classic;html=1;rounded=0;exitX=0.5;exitY=0;exitDx=0;exitDy=0;" edge="1" parent="1" source="amzg2w3BqqPhj0Owf0NF-89">
          <mxGeometry width="50" height="50" relative="1" as="geometry">
            <mxPoint x="618.71" y="507" as="sourcePoint" />
            <mxPoint x="619" y="417" as="targetPoint" />
          </mxGeometry>
        </mxCell>
        <mxCell id="amzg2w3BqqPhj0Owf0NF-93" value="&lt;font style=&quot;font-size: 13px;&quot;&gt;h&lt;sub&gt;t&lt;/sub&gt;&lt;/font&gt;" style="ellipse;whiteSpace=wrap;html=1;aspect=fixed;fillColor=#e1d5e7;strokeColor=#9673a6;" vertex="1" parent="1">
          <mxGeometry x="599" y="377" width="40" height="40" as="geometry" />
        </mxCell>
        <mxCell id="amzg2w3BqqPhj0Owf0NF-95" value="" style="endArrow=none;dashed=1;html=1;rounded=0;strokeWidth=2;" edge="1" parent="1">
          <mxGeometry width="50" height="50" relative="1" as="geometry">
            <mxPoint x="500" y="521.58" as="sourcePoint" />
            <mxPoint x="570" y="521.58" as="targetPoint" />
            <Array as="points">
              <mxPoint x="520" y="521.58" />
            </Array>
          </mxGeometry>
        </mxCell>
        <mxCell id="amzg2w3BqqPhj0Owf0NF-107" value="" style="endArrow=classic;html=1;rounded=0;strokeWidth=2;" edge="1" parent="1" source="amzg2w3BqqPhj0Owf0NF-142">
          <mxGeometry width="50" height="50" relative="1" as="geometry">
            <mxPoint x="80" y="830" as="sourcePoint" />
            <mxPoint x="650" y="830" as="targetPoint" />
          </mxGeometry>
        </mxCell>
        <mxCell id="amzg2w3BqqPhj0Owf0NF-108" value="" style="endArrow=none;html=1;rounded=0;strokeWidth=2;" edge="1" parent="1">
          <mxGeometry width="50" height="50" relative="1" as="geometry">
            <mxPoint x="80" y="1040" as="sourcePoint" />
            <mxPoint x="440" y="1040" as="targetPoint" />
          </mxGeometry>
        </mxCell>
        <mxCell id="amzg2w3BqqPhj0Owf0NF-109" value="" style="endArrow=classic;html=1;rounded=0;strokeWidth=2;" edge="1" parent="1">
          <mxGeometry width="50" height="50" relative="1" as="geometry">
            <mxPoint x="520" y="1040" as="sourcePoint" />
            <mxPoint x="650" y="1040" as="targetPoint" />
          </mxGeometry>
        </mxCell>
        <mxCell id="amzg2w3BqqPhj0Owf0NF-110" value="" style="endArrow=none;html=1;rounded=0;strokeWidth=2;" edge="1" parent="1" source="amzg2w3BqqPhj0Owf0NF-115">
          <mxGeometry width="50" height="50" relative="1" as="geometry">
            <mxPoint x="521" y="1040" as="sourcePoint" />
            <mxPoint x="521" y="830" as="targetPoint" />
          </mxGeometry>
        </mxCell>
        <mxCell id="amzg2w3BqqPhj0Owf0NF-111" value="" style="endArrow=none;html=1;rounded=0;strokeWidth=2;" edge="1" parent="1">
          <mxGeometry width="50" height="50" relative="1" as="geometry">
            <mxPoint x="580" y="1040" as="sourcePoint" />
            <mxPoint x="580" y="830" as="targetPoint" />
          </mxGeometry>
        </mxCell>
        <mxCell id="amzg2w3BqqPhj0Owf0NF-112" value="" style="endArrow=classic;html=1;rounded=0;strokeWidth=2;" edge="1" parent="1">
          <mxGeometry width="50" height="50" relative="1" as="geometry">
            <mxPoint x="580" y="830" as="sourcePoint" />
            <mxPoint x="581" y="720" as="targetPoint" />
          </mxGeometry>
        </mxCell>
        <mxCell id="amzg2w3BqqPhj0Owf0NF-116" value="" style="endArrow=none;html=1;rounded=0;strokeWidth=2;" edge="1" parent="1" source="amzg2w3BqqPhj0Owf0NF-113" target="amzg2w3BqqPhj0Owf0NF-115">
          <mxGeometry width="50" height="50" relative="1" as="geometry">
            <mxPoint x="521" y="1040" as="sourcePoint" />
            <mxPoint x="521" y="830" as="targetPoint" />
          </mxGeometry>
        </mxCell>
        <mxCell id="amzg2w3BqqPhj0Owf0NF-115" value="&lt;span style=&quot;font-size: 14px;&quot;&gt;tanh&lt;/span&gt;" style="ellipse;whiteSpace=wrap;html=1;" vertex="1" parent="1">
          <mxGeometry x="480" y="860" width="80" height="30" as="geometry" />
        </mxCell>
        <mxCell id="amzg2w3BqqPhj0Owf0NF-117" value="" style="endArrow=none;html=1;rounded=0;strokeWidth=2;" edge="1" parent="1" target="amzg2w3BqqPhj0Owf0NF-113">
          <mxGeometry width="50" height="50" relative="1" as="geometry">
            <mxPoint x="521" y="1040" as="sourcePoint" />
            <mxPoint x="520" y="900" as="targetPoint" />
          </mxGeometry>
        </mxCell>
        <mxCell id="amzg2w3BqqPhj0Owf0NF-113" value="&lt;b&gt;&lt;font style=&quot;font-size: 13px;&quot;&gt;X&lt;/font&gt;&lt;/b&gt;" style="ellipse;whiteSpace=wrap;html=1;aspect=fixed;" vertex="1" parent="1">
          <mxGeometry x="500" y="920" width="40" height="40" as="geometry" />
        </mxCell>
        <mxCell id="amzg2w3BqqPhj0Owf0NF-126" value="" style="endArrow=classic;html=1;rounded=0;strokeWidth=2;" edge="1" parent="1">
          <mxGeometry width="50" height="50" relative="1" as="geometry">
            <mxPoint x="440" y="940" as="sourcePoint" />
            <mxPoint x="500" y="939.76" as="targetPoint" />
            <Array as="points">
              <mxPoint x="480" y="939.76" />
            </Array>
          </mxGeometry>
        </mxCell>
        <mxCell id="amzg2w3BqqPhj0Owf0NF-127" value="" style="endArrow=none;html=1;rounded=0;strokeWidth=2;" edge="1" parent="1">
          <mxGeometry width="50" height="50" relative="1" as="geometry">
            <mxPoint x="441" y="1041" as="sourcePoint" />
            <mxPoint x="441" y="941" as="targetPoint" />
          </mxGeometry>
        </mxCell>
        <mxCell id="amzg2w3BqqPhj0Owf0NF-128" value="&lt;span style=&quot;font-size: 17px;&quot;&gt;σ&lt;/span&gt;" style="rounded=0;whiteSpace=wrap;html=1;" vertex="1" parent="1">
          <mxGeometry x="407.5" y="970" width="70" height="30" as="geometry" />
        </mxCell>
        <mxCell id="amzg2w3BqqPhj0Owf0NF-129" value="" style="endArrow=classic;html=1;rounded=0;strokeWidth=2;" edge="1" parent="1">
          <mxGeometry width="50" height="50" relative="1" as="geometry">
            <mxPoint x="354" y="1040" as="sourcePoint" />
            <mxPoint x="354" y="850" as="targetPoint" />
          </mxGeometry>
        </mxCell>
        <mxCell id="amzg2w3BqqPhj0Owf0NF-130" value="&lt;font style=&quot;font-size: 14px;&quot;&gt;tanh&lt;/font&gt;" style="rounded=0;whiteSpace=wrap;html=1;" vertex="1" parent="1">
          <mxGeometry x="321.5" y="970" width="70" height="30" as="geometry" />
        </mxCell>
        <mxCell id="amzg2w3BqqPhj0Owf0NF-131" value="&lt;font size=&quot;1&quot; style=&quot;&quot;&gt;&lt;b style=&quot;font-size: 13px;&quot;&gt;X&lt;/b&gt;&lt;/font&gt;" style="ellipse;whiteSpace=wrap;html=1;aspect=fixed;" vertex="1" parent="1">
          <mxGeometry x="334" y="910" width="40" height="40" as="geometry" />
        </mxCell>
        <mxCell id="amzg2w3BqqPhj0Owf0NF-132" value="" style="ellipse;whiteSpace=wrap;html=1;aspect=fixed;" vertex="1" parent="1">
          <mxGeometry x="334" y="810" width="40" height="40" as="geometry" />
        </mxCell>
        <mxCell id="amzg2w3BqqPhj0Owf0NF-133" value="" style="endArrow=none;html=1;rounded=0;strokeWidth=2;" edge="1" parent="1">
          <mxGeometry width="50" height="50" relative="1" as="geometry">
            <mxPoint x="251" y="1040" as="sourcePoint" />
            <mxPoint x="251" y="930" as="targetPoint" />
          </mxGeometry>
        </mxCell>
        <mxCell id="amzg2w3BqqPhj0Owf0NF-134" value="&lt;span style=&quot;font-size: 17px;&quot;&gt;σ&lt;/span&gt;" style="rounded=0;whiteSpace=wrap;html=1;" vertex="1" parent="1">
          <mxGeometry x="217.5" y="969" width="70" height="30" as="geometry" />
        </mxCell>
        <mxCell id="amzg2w3BqqPhj0Owf0NF-135" value="" style="endArrow=classic;html=1;rounded=0;strokeWidth=2;" edge="1" parent="1">
          <mxGeometry width="50" height="50" relative="1" as="geometry">
            <mxPoint x="250" y="930" as="sourcePoint" />
            <mxPoint x="334" y="929.71" as="targetPoint" />
            <Array as="points">
              <mxPoint x="314" y="929.71" />
            </Array>
          </mxGeometry>
        </mxCell>
        <mxCell id="amzg2w3BqqPhj0Owf0NF-136" value="" style="endArrow=classic;html=1;rounded=0;strokeWidth=2;" edge="1" parent="1">
          <mxGeometry width="50" height="50" relative="1" as="geometry">
            <mxPoint x="160" y="1040" as="sourcePoint" />
            <mxPoint x="160" y="850" as="targetPoint" />
          </mxGeometry>
        </mxCell>
        <mxCell id="amzg2w3BqqPhj0Owf0NF-137" value="&lt;font style=&quot;font-size: 17px;&quot;&gt;σ&lt;/font&gt;" style="rounded=0;whiteSpace=wrap;html=1;" vertex="1" parent="1">
          <mxGeometry x="125" y="970" width="70" height="30" as="geometry" />
        </mxCell>
        <mxCell id="amzg2w3BqqPhj0Owf0NF-140" value="" style="curved=1;endArrow=classic;html=1;rounded=0;strokeWidth=2;" edge="1" parent="1">
          <mxGeometry width="50" height="50" relative="1" as="geometry">
            <mxPoint x="137" y="1080" as="sourcePoint" />
            <mxPoint x="157" y="1040" as="targetPoint" />
            <Array as="points">
              <mxPoint x="137" y="1040" />
            </Array>
          </mxGeometry>
        </mxCell>
        <mxCell id="amzg2w3BqqPhj0Owf0NF-141" value="" style="endArrow=none;html=1;rounded=0;strokeWidth=2;" edge="1" parent="1">
          <mxGeometry width="50" height="50" relative="1" as="geometry">
            <mxPoint x="137" y="1140" as="sourcePoint" />
            <mxPoint x="137" y="1080" as="targetPoint" />
          </mxGeometry>
        </mxCell>
        <mxCell id="amzg2w3BqqPhj0Owf0NF-143" value="" style="endArrow=classic;html=1;rounded=0;strokeWidth=2;" edge="1" parent="1" target="amzg2w3BqqPhj0Owf0NF-142">
          <mxGeometry width="50" height="50" relative="1" as="geometry">
            <mxPoint x="80" y="830" as="sourcePoint" />
            <mxPoint x="650" y="830" as="targetPoint" />
          </mxGeometry>
        </mxCell>
        <mxCell id="amzg2w3BqqPhj0Owf0NF-144" style="edgeStyle=orthogonalEdgeStyle;rounded=0;orthogonalLoop=1;jettySize=auto;html=1;exitX=1;exitY=0.5;exitDx=0;exitDy=0;" edge="1" parent="1" source="amzg2w3BqqPhj0Owf0NF-142">
          <mxGeometry relative="1" as="geometry">
            <mxPoint x="185" y="830" as="sourcePoint" />
            <mxPoint x="335" y="830" as="targetPoint" />
          </mxGeometry>
        </mxCell>
        <mxCell id="amzg2w3BqqPhj0Owf0NF-142" value="&lt;font size=&quot;1&quot; style=&quot;&quot;&gt;&lt;b style=&quot;font-size: 13px;&quot;&gt;X&lt;/b&gt;&lt;/font&gt;" style="ellipse;whiteSpace=wrap;html=1;aspect=fixed;" vertex="1" parent="1">
          <mxGeometry x="140" y="810" width="40" height="40" as="geometry" />
        </mxCell>
        <mxCell id="amzg2w3BqqPhj0Owf0NF-145" value="" style="ellipse;whiteSpace=wrap;html=1;aspect=fixed;" vertex="1" parent="1">
          <mxGeometry x="566" y="690" width="30" height="30" as="geometry" />
        </mxCell>
        <mxCell id="amzg2w3BqqPhj0Owf0NF-146" value="x&lt;sub&gt;t&lt;/sub&gt;" style="ellipse;whiteSpace=wrap;html=1;aspect=fixed;" vertex="1" parent="1">
          <mxGeometry x="122" y="1127" width="30" height="30" as="geometry" />
        </mxCell>
        <mxCell id="amzg2w3BqqPhj0Owf0NF-147" value="h&lt;sub&gt;t-1&lt;/sub&gt;" style="ellipse;whiteSpace=wrap;html=1;aspect=fixed;" vertex="1" parent="1">
          <mxGeometry x="60" y="1030" width="30" height="30" as="geometry" />
        </mxCell>
      </root>
    </mxGraphModel>
  </diagram>
</mxfile>
